<?xml version="1.0" standalone="no"?>
<!DOCTYPE svg PUBLIC "-//W3C//DTD SVG 20010904//EN"
 "http://www.w3.org/TR/2001/REC-SVG-20010904/DTD/svg10.dtd">
<svg version="1.0" xmlns="http://www.w3.org/2000/svg"
 width="512.000000pt" height="512.000000pt" viewBox="0 0 512.000000 512.000000"
 preserveAspectRatio="xMidYMid meet">
<metadata>
Created by potrace 1.14, written by Peter Selinger 2001-2017
</metadata>
<g transform="translate(0.000000,512.000000) scale(0.100000,-0.100000)"
fill="#000000" stroke="none">
<path d="M2350 5114 c-408 -47 -719 -140 -1014 -304 -641 -357 -1089 -937
-1260 -1630 -49 -201 -66 -325 -73 -541 -19 -602 155 -1149 520 -1639 97 -129
357 -387 492 -488 344 -256 738 -421 1160 -488 137 -22 491 -30 641 -15 577
58 1101 300 1517 701 381 367 626 808 736 1323 68 317 68 737 0 1054 -81 381
-231 710 -471 1031 -93 124 -355 387 -478 479 -359 268 -742 429 -1180 498
-100 16 -506 29 -590 19z m1045 -1246 c113 -39 198 -91 286 -178 87 -86 149
-184 187 -297 l27 -78 0 -755 0 -755 -28 -80 c-79 -226 -246 -393 -472 -472
l-80 -28 -755 0 -755 0 -78 27 c-113 38 -211 100 -297 187 -87 88 -139 173
-178 286 l-27 80 -3 732 c-3 828 -5 798 75 963 39 80 59 108 137 186 78 78
106 98 186 137 162 79 123 76 955 74 l740 -2 80 -27z"/>
<path d="M1912 3656 c-166 -41 -326 -171 -400 -326 -22 -47 -45 -108 -51 -135
-6 -31 -10 -280 -11 -640 -2 -656 -3 -639 66 -777 50 -99 163 -212 262 -262
144 -72 129 -71 782 -71 523 0 592 2 647 17 222 62 389 229 451 451 15 55 17
124 17 647 0 523 -2 592 -17 647 -60 217 -236 394 -445 448 -78 20 -1217 21
-1301 1z m1444 -225 c147 -67 97 -301 -63 -301 -89 0 -151 53 -161 135 -6 57
2 86 35 126 50 59 116 73 189 40z m-632 -201 c152 -39 281 -123 371 -242 271
-357 145 -865 -260 -1054 -183 -85 -387 -83 -570 6 -148 72 -252 178 -321 327
-46 97 -64 180 -64 294 -1 448 416 779 844 669z"/>
<path d="M2445 3006 c-228 -55 -383 -289 -345 -517 53 -310 383 -478 663 -337
243 122 323 435 170 665 -104 157 -303 234 -488 189z"/>
</g>
</svg>
